<?xml version="1.0" encoding="utf-8"?>
<!-- Generator: Adobe Illustrator 21.1.0, SVG Export Plug-In . SVG Version: 6.00 Build 0)  -->
<svg version="1.1" id="Layer_1" xmlns="http://www.w3.org/2000/svg" xmlns:xlink="http://www.w3.org/1999/xlink" x="0px" y="0px"
	 viewBox="0 0 32.1 10.4" style="enable-background:new 0 0 32.1 10.4;" xml:space="preserve">
<style type="text/css">
	.st0{fill:#FFFFFF;}
</style>
<g>
	<path class="st0" d="M9.2,6.2L9.2,6.2C9.2,6.1,9.2,6.1,9.2,6.2L9.2,6.2z"/>
	<path class="st0" d="M31.7,6.2L32,5.8c-0.1,0-0.2,0-0.3-0.1c-0.1-0.1-0.2-0.2-0.2-0.3S30.3,5.1,30.2,5c-0.1-0.2-0.1-0.3-0.2-0.4
		c-0.1-0.1-0.2-0.2-0.3-0.2c-0.1,0-0.2,0-0.3-0.1c0,0-0.1-0.1-0.1-0.2C29.2,4.1,29.2,4,29.1,4C29.1,4,29,4,28.9,4
		c-0.1,0-0.2,0-0.3,0c0-0.1,0.1-0.1,0.2-0.1c0.1,0,0.2,0,0.2,0l0-0.2l-0.5-0.2c-0.1,0-0.1,0-0.1,0.1c0,0,0,0.1,0,0.2
		c0,0.1,0,0.1,0,0.2c-0.2,0-0.3,0-0.4,0c-0.1,0-0.2,0-0.3-0.1c-0.1,0-0.2-0.1-0.2-0.2c-0.1-0.1-0.2-0.2-0.3-0.3l0.1,0
		c0.1,0,0.3,0.1,0.4,0.2c0.1,0.1,0.2,0.2,0.4,0.2l0-0.4l-0.5,0c0-0.3-0.1-0.4-0.3-0.6c-0.2-0.1-0.4-0.2-0.7-0.2l0,0c0,0-0.1,0-0.1,0
		c0,0-0.1,0-0.1,0.1c0.1,0,0.3,0.1,0.4,0.2C26.9,3,27,3.1,27.1,3.2c-0.1,0.1-0.2,0.2-0.4,0.4c-0.2,0.1-0.4,0.2-0.5,0.2c0,0,0,0,0,0
		c0,0,0,0,0,0c0-0.2-0.1-0.4-0.2-0.6c-0.1-0.2-0.3-0.3-0.5-0.3l0-0.1c0.1,0,0.2,0,0.3,0c0.1,0,0.2,0,0.3,0.1l0-0.4c0,0-0.1,0-0.2,0
		c-0.1,0-0.2,0-0.2-0.1c0,0,0,0-0.1-0.1c0-0.1-0.1-0.1-0.1-0.1c-0.1-0.1-0.3-0.1-0.6-0.1c-0.3,0-0.4,0-0.6-0.1C24,2,24,1.9,24,1.8
		c0-0.1,0-0.2-0.1-0.2c0,0,0,0,0,0c0,0,0,0,0,0l0,0c0,0,0,0-0.1,0c-0.1,0-0.1,0-0.1,0c-0.1,0-0.2-0.1-0.2-0.2s-0.1-0.2-0.2-0.2
		l0,0.2c-0.1,0-0.2,0-0.3,0c-0.1,0-0.1,0-0.1,0c0,0-0.1,0-0.1-0.1c0,0-0.1,0-0.2,0c0,0,0,0-0.1,0c0,0,0,0-0.1,0l0,0l-0.1,0l-0.1-0.1
		c0,0-0.1,0-0.1,0c-0.1,0-0.1,0-0.2,0l0-0.1c0,0,0-0.1,0-0.1C22,1,22,1,22.1,1c-0.1,0-0.2,0-0.3-0.1c-0.1,0-0.3-0.1-0.3-0.1
		c0,0,0,0-0.1,0c-0.1,0-0.1,0-0.2,0c-0.1,0-0.1,0-0.2,0c-0.1,0-0.1,0-0.1,0c-0.2-0.1-0.4-0.1-0.6-0.2c-0.2-0.1-0.3-0.2-0.5-0.2
		c-0.2-0.1-0.3-0.1-0.5-0.2C19.1,0,18.9,0,18.7,0c-0.1,0-0.1,0-0.1,0.1c0,0-0.1,0.1-0.1,0.1c-0.1,0-0.2,0-0.3,0
		c-0.1,0-0.3,0.1-0.4,0.2c0,0.2-0.1,0.4-0.1,0.5c0.3,0.5,0.3,1.1,0.2,1.7l0,0C17.9,2.6,18,2.7,18,2.7l0,0l0.1,0c0,0,0,0,0-0.1
		c0-0.1,0-0.1,0-0.1l0,0c0.1,0,0.1,0,0.2,0.1c0,0.1,0.1,0.1,0.1,0.2c0,0,0,0,0,0l0,0l0,0c0,0,0-0.1,0-0.3c0-0.1,0-0.3,0-0.3l0-0.1
		c0,0,0,0-0.1,0c-0.1,0-0.1,0-0.1,0c0,0,0,0,0-0.1c0,0,0,0,0,0l1.1,0c0,0,0,0,0,0.1c0,0.1,0,0.1,0.1,0.1c0.1,0.2,0.1,0.4,0.2,0.5
		c0.1,0.1,0.2,0.2,0.3,0.3C20.4,3,20.5,3,20.6,3.1c0.2,0,0.4,0,0.6,0c0-0.1,0-0.2-0.1-0.2c-0.1,0-0.2,0-0.2,0c0-0.1,0-0.2,0.1-0.3
		c0.1,0,0.1-0.1,0.1-0.3c0,0,0.1,0.1,0.2,0.1c0.1,0,0.1,0.1,0.2,0.1l0.1,0c0,0,0,0,0.1-0.1c0-0.1,0-0.1,0.1-0.1l0,0c0,0,0,0,0,0
		c0,0,0,0,0,0l0,0l0.1,0.4c0,0-0.1,0-0.2,0.1c-0.1,0-0.2,0.1-0.2,0.2c0.2,0,0.3,0,0.4,0c0.1,0,0.2,0.1,0.2,0.1
		c0.1,0,0.1,0.1,0.2,0.1c0.1,0,0.2,0,0.3,0l0,0.4l-0.4,0c0,0.1,0,0.2,0.1,0.2c0.1,0.1,0.1,0.2,0.2,0.2c0.1,0.1,0.2,0.1,0.3,0.2
		c0.1,0,0.2,0.1,0.3,0.1c0.1,0,0.1,0,0.2-0.1c0-0.1,0-0.1,0.1-0.2c0-0.1,0.1-0.1,0.1-0.2c0,0,0.1-0.1,0.2-0.1l0-0.5
		c0.1,0.1,0.2,0.2,0.3,0.3c0.1,0.1,0.3,0.2,0.4,0.2c0,0.1-0.1,0.2-0.2,0.2c-0.1,0-0.1,0.1-0.2,0.1c-0.1,0-0.1,0.1-0.2,0.1
		c0,0-0.1,0.1-0.1,0.3c0.1,0,0.2,0,0.3-0.1c0,0,0.1-0.1,0.2-0.1l0,0.2L24,4.6L24,4.7c0,0.1-0.1,0.1-0.1,0.1c0,0-0.1,0-0.2,0
		s-0.2,0-0.2,0c-0.1-0.1-0.1-0.2-0.1-0.2c0-0.1-0.1-0.1-0.3-0.1c-0.1,0-0.2,0-0.3,0.1c-0.1,0-0.2,0-0.3,0c-0.1,0-0.1,0-0.1,0
		c0,0-0.1,0-0.2,0c0,0,0,0-0.1,0c0,0,0,0-0.1,0c0,0-0.1,0-0.1,0c-0.1,0-0.1,0-0.2,0c-0.1,0-0.1,0-0.2,0.1c0,0-0.1,0-0.2,0
		c-0.1,0-0.2,0-0.2,0c0,0-0.1,0-0.1,0v0c-0.1-0.1-0.2-0.1-0.3-0.1c-0.1,0-0.2,0-0.4,0c-0.1,0-0.2,0-0.2-0.1c0,0-0.1-0.1-0.2-0.1
		h-0.1c0,0-0.1,0-0.2,0c-0.1,0-0.2,0-0.2,0h-0.1h0c0,0-0.1,0-0.1-0.1c-0.1,0-0.1-0.1-0.1-0.1c-0.1,0-0.1,0-0.2,0
		c-0.1,0-0.1,0-0.2,0.1c-0.1,0-0.1,0.1-0.2,0.1c-0.1,0-0.1,0-0.2,0c-0.1,0-0.2-0.1-0.3-0.1c-0.1,0-0.2-0.1-0.4,0c-0.1,0-0.1,0-0.2,0
		c-0.1,0-0.2,0.1-0.3,0.1c-0.1,0-0.2,0.1-0.3,0.1c-0.1,0-0.1,0.1-0.1,0.1c0,0-0.1,0-0.1,0c-0.1,0-0.1,0-0.1,0c0,0-0.1,0-0.3,0
		c-0.2,0-0.2,0-0.3,0s-0.1,0-0.2,0c-0.1,0-0.2,0-0.2,0c0,0-0.1,0-0.2,0c-0.1,0-0.2,0-0.2,0c0,0-0.1,0-0.1,0c-0.1,0-0.1,0-0.1-0.1
		l0,0l0,0l0.1-0.1c0,0,0,0,0,0c0,0,0,0,0,0c-0.2,0-0.3,0-0.4,0.1c-0.1,0.1-0.2,0.1-0.3,0.1h0c0,0,0,0-0.1,0c0,0-0.1,0-0.1,0
		c-0.1,0.1-0.2,0.1-0.3,0.1c-0.1,0-0.2,0-0.3,0c-0.1,0-0.2,0-0.3,0c-0.1,0-0.2,0-0.4,0c-0.1,0-0.2,0-0.4,0c-0.1,0-0.3,0-0.4,0
		c-0.1,0-0.2,0-0.4,0c0,0,0-0.1,0-0.1c0,0-0.1,0-0.1,0c0,0.1,0,0.1-0.1,0.2c-0.1,0.1-0.2,0.1-0.3,0.1c-0.1,0-0.2,0-0.2,0
		c0,0-0.1,0-0.2,0c-0.1,0-0.2,0-0.2,0.1c-0.1,0.1-0.1,0.1-0.3,0.1c-0.1,0-0.1,0-0.1-0.1c0-0.1,0-0.1,0-0.1c-0.1,0-0.2,0-0.3,0.1
		c-0.1,0-0.2,0.1-0.3,0.1v0.1C9.6,4.8,9.5,4.8,9.4,4.8s-0.2,0-0.3,0c-0.2,0-0.3,0-0.3,0S8.7,4.8,8.7,4.9c-0.1,0-0.2,0-0.2,0
		c0,0,0,0-0.1,0c0,0-0.1,0-0.1-0.1c-0.1,0-0.2,0-0.3-0.1c0,0-0.1,0-0.1,0c-0.1,0-0.1,0-0.1,0c0,0,0,0-0.1,0c0,0-0.1,0-0.1,0.1
		c0,0-0.1,0-0.1-0.1c-0.1,0-0.1-0.1-0.1-0.1c0,0-0.1,0-0.2,0s-0.2,0-0.2,0c-0.1,0-0.1,0-0.3,0c-0.1,0-0.2,0-0.3,0v0.1
		c0,0-0.1,0-0.1,0s0,0-0.1-0.1c-0.3,0-0.5,0-0.8,0c-0.2,0-0.5-0.1-0.8-0.1c-0.1,0-0.2,0-0.2,0H3C2.8,4.6,2.5,4.5,2.1,4.5
		c-0.4-0.1-0.7-0.1-1-0.1c-0.1,0-0.2,0-0.3,0.1C0.7,4.5,0.6,4.6,0.6,4.6c-0.1,0-0.2,0-0.2,0c0,0,0,0-0.1,0H0.3c0,0-0.1,0-0.1,0
		c-0.1,0-0.1,0-0.1,0c0,0,0,0-0.1,0c0,0,0,0-0.1,0c0,0,0.1,0,0.1,0.1c0.1,0,0.1,0,0.1,0l0.2,0c0,0,0.1,0,0.1,0c0,0,0.1,0,0.1,0v0
		c0,0,0,0.1-0.1,0.1c0,0-0.1,0-0.1,0L0.3,5C0.3,5,0.2,5,0.2,5v0l0.2,0.2c0,0,0,0,0,0.1c0,0.1-0.1,0.1-0.2,0.1c0.1,0,0.2,0.1,0.2,0.1
		c0,0,0,0.1,0,0.1c0,0.1,0,0.1,0,0.2c0,0.1,0,0.2-0.2,0.2c0,0,0.1,0,0.2,0c0.1,0,0.1,0,0.2,0C0.5,6,0.4,6,0.4,6.1
		C0.3,6.1,0.3,6.2,0.3,6.2v0c0,0,0,0,0,0c0,0,0,0,0,0c0.1,0.1,0.3,0.1,0.4,0.1c0.1,0,0.2,0,0.3,0s0.2,0,0.3,0c0.1,0,0.2,0,0.3,0.1H3
		c0,0,0,0,0.1-0.1c0,0,0.1,0,0.1,0l0.2,0l0.1,0c0,0,0.1,0,0.3,0c0.1,0,0.2,0,0.3,0h0h0.1c0,0,0.1,0,0.1,0c0,0,0,0,0.1,0h0
		c0,0,0.1,0,0.1-0.1c0.1,0,0.1-0.1,0.1-0.1c0,0,0,0,0.1,0c0,0,0.1,0,0.1,0c0.1,0,0.1,0,0.2,0c0,0,0.1,0,0.1,0.1c0,0,0.1,0,0.1,0.1
		c0,0,0.1,0,0.2,0c0.1,0,0.3,0,0.5-0.1c0.2,0,0.4-0.1,0.4-0.1c0,0,0.1,0,0.1,0c0,0,0.1,0.1,0.1,0.1c0,0,0-0.1,0.1-0.1
		c0,0,0.1-0.1,0.1-0.1h0.1c0.1,0,0.3,0,0.4,0c0.1,0,0.2,0,0.3,0.1c0.1,0,0.2,0.1,0.4,0.1c0.1,0,0.3,0,0.5,0c0-0.1,0.1-0.2,0.2-0.2
		c0.1,0,0.1,0,0.2,0s0.1,0,0.1,0h0c0.1,0,0.2,0,0.2-0.1c0.1,0,0.1-0.1,0.2-0.1h0l0.1,0c0.1,0,0.1,0,0.1-0.1c0,0,0,0,0-0.1
		c0,0,0,0,0,0L9,6v0v0c0,0,0,0,0.1,0.1c0,0,0.1,0.1,0.1,0.1v0c0,0,0.1,0,0.1,0.1c0,0.1,0.1,0.1,0.2,0.1c0.5,0,0.9-0.1,1.3-0.2h0.1
		c0.1,0,0.3,0,0.4,0.1c0.2,0,0.3,0.1,0.3,0.2h0.7c0,0,0,0,0.1,0c0,0,0.1,0,0.1,0c0.1,0,0.1,0,0.1,0h0.8V6.3c0.1,0,0.2,0,0.3,0
		c0.1,0,0.2,0,0.3,0c0.1,0,0.2,0,0.2,0c0,0,0.1,0,0.2,0c0.1,0,0.3-0.1,0.4-0.1c0.2,0,0.3,0,0.4,0v0c0,0,0.1,0,0.2,0
		c0.1,0,0.2,0,0.2,0l0.1,0c0,0,0,0,0.1,0H16c0,0,0.1,0,0.2,0c0.1,0,0.2,0,0.2,0c0.1,0,0.3,0,0.4,0c0.2,0,0.3,0,0.4,0
		c0.1,0,0.2,0,0.3-0.1c0.1,0,0.2-0.1,0.4-0.1c0,0,0.1,0,0.2,0c0.1,0,0.1,0,0.2,0c0,0,0.1,0.1,0.2,0.1c0.1,0,0.2,0,0.2,0
		c0.1,0,0.2,0,0.2,0c0,0,0,0,0.1,0c0,0,0,0,0.1,0c0,0,0.1,0,0.2,0c0,0,0,0,0.1,0l0.1,0c0,0,0.1,0,0.2,0c0.1,0,0.2,0,0.2,0
		c0.1,0,0.1,0,0.1,0c0,0,0,0,0.1,0c0,0,0,0,0.1,0h0h0l0.1,0c0,0,0.1,0,0.1,0h0.1l0-0.1c0,0.1,0.1,0.1,0.2,0.1s0.1,0,0.2,0
		c0,0,0.1,0,0.2,0c0.1,0,0.2,0,0.2,0l-0.2-0.1c0,0,0.1,0,0.1,0c0.1,0,0.1,0,0.1,0c0.1,0,0.2,0,0.2,0c0,0,0,0,0.1,0.1
		c0.1,0.1,0.3,0.2,0.5,0.2s0.4,0,0.6,0c0.2,0,0.4,0,0.5,0c0.2,0,0.3,0,0.3,0.1c0,0,0.1,0,0.2,0c0.1,0,0.1,0,0.2,0c0.1,0,0.3,0,0.4,0
		c0.1,0,0.3,0,0.4,0c0.1,0,0.3,0,0.4,0c0.1,0,0.2,0,0.3,0c0,0-0.1,0.1-0.1,0.1c0,0,0,0,0,0c0,0,0,0,0,0c-0.1,0.1-0.2,0.2-0.3,0.2
		c-0.1,0.1-0.3,0.1-0.4,0.1C24.3,7,24.2,7,24,7c-0.3,0.1-0.5,0.1-0.7,0.2c-0.2,0.1-0.4,0.1-0.7,0.1c0,0,0,0.1,0,0.1c0,0,0,0.1,0,0.1
		l0,0.1c-0.1,0.1-0.2,0.1-0.4,0.2C22.1,7.9,21.9,8,21.6,8c-0.2,0.1-0.5,0.1-0.7,0.1c-0.2,0-0.4,0.1-0.5,0.1l-0.1,0c0,0,0,0,0,0
		c0,0-0.1,0-0.1-0.1c-0.1,0-0.1,0-0.2,0c0,0-0.1,0-0.2,0c-0.1,0-0.1,0.1-0.2,0.1c-0.1,0-0.1,0.1-0.2,0.1c-0.1,0-0.1,0.1-0.1,0.1
		c0.2,0.1,0.3,0.1,0.4,0.2C19.9,8.7,20,8.9,20,9.1c0,0.1,0,0.2-0.1,0.3c0,0.1-0.1,0.1-0.1,0.2c-0.1,0-0.1,0.1-0.1,0.1
		c0,0-0.1,0.1-0.1,0.1c0,0.1,0,0.2,0,0.3c0,0,0,0.1,0,0.3C20,10.2,20.4,10,21,10c0.3,0,0.5,0.1,0.8,0.1c0,0,0.1,0,0.1,0
		c0,0,0.1,0,0.2,0c0.1,0,0.2,0,0.3-0.1c0.1,0,0.2,0,0.3-0.1c0.1,0,0.2,0,0.2,0c0.1,0,0.2-0.1,0.3-0.1c0.1-0.1,0.2-0.1,0.3-0.2
		c0.1-0.1,0.2-0.1,0.3-0.2C23.9,9.2,24,9.2,24,9.2c0.2,0,0.4-0.1,0.5-0.1C24.7,9,24.9,8.9,25,8.9c0.1-0.1,0.3-0.1,0.4-0.2
		c0.2-0.1,0.3-0.1,0.5-0.2c0.1,0,0.2,0,0.2-0.1c0.1-0.1,0.1-0.1,0.2-0.2c0.1-0.1,0.1-0.1,0.2-0.2c0.1-0.1,0.1-0.1,0.2-0.1
		c0.2-0.1,0.4-0.1,0.6-0.2c0.2,0,0.4-0.1,0.5-0.2c0.2-0.1,0.3-0.2,0.5-0.3c0.1-0.1,0.3-0.3,0.4-0.5l1.6,0c0.1,0,1.3-0.1,1.5-0.2
		c0.2-0.1,0.3-0.2,0.3-0.4L31.7,6.2z M18.5,1.3c-0.1,0-0.2,0-0.3-0.1c0-0.1,0.1-0.2,0.2-0.2c0.1,0,0.2-0.1,0.3-0.1l0,0.5
		C18.7,1.4,18.6,1.4,18.5,1.3z M1,4.7C1.1,4.7,1.1,4.7,1,4.7C1,4.7,1,4.7,1,4.7C1,4.7,1,4.7,1,4.7z M1,4.9C1,4.9,1.1,4.9,1,4.9
		C1.1,4.9,1,4.9,1,4.9C0.9,4.9,0.9,4.9,1,4.9C0.9,4.9,0.9,4.9,1,4.9z M1.1,5.2L0.8,4.9h0C1,4.9,1,5,1.1,5c0.1,0.1,0.1,0.1,0.1,0.1
		H1.1z M2.5,4.7C2.5,4.7,2.4,4.6,2.5,4.7C2.4,4.6,2.5,4.6,2.5,4.7C2.6,4.6,2.6,4.6,2.5,4.7C2.6,4.6,2.6,4.7,2.5,4.7z M4.1,6.3
		C4,6.3,4,6.3,4.1,6.3c0-0.1,0-0.1,0.1,0C4.2,6.3,4.1,6.3,4.1,6.3z M7,4.9C7,4.9,7,4.9,7,4.9C7,4.9,7,4.9,7,4.9
		C7.1,4.9,7.1,4.9,7,4.9C7.1,4.9,7.1,4.9,7,4.9z M7.2,5C7.1,5,7.1,5,7.2,5C7.1,5,7.1,4.9,7.2,5C7.2,4.9,7.3,5,7.2,5
		C7.3,5,7.2,5,7.2,5z M7.6,6.3c-0.1,0-0.1,0-0.1,0C7.5,6.2,7.5,6.2,7.6,6.3c0.1-0.1,0.1-0.1,0.1,0C7.7,6.3,7.7,6.3,7.6,6.3z
		 M9.4,4.9C9.3,4.9,9.3,4.9,9.4,4.9C9.3,4.9,9.3,4.9,9.4,4.9C9.4,4.9,9.5,4.9,9.4,4.9C9.5,4.9,9.4,4.9,9.4,4.9z M10.7,5
		C10.7,5,10.6,5,10.7,5C10.7,5,10.7,5,10.7,5C10.7,5,10.7,5,10.7,5z M12.9,4.8L12.9,4.8H13H12.9z M13.3,4.9c0,0-0.1,0-0.1-0.1
		L13.3,4.9c0.1-0.1,0.1,0,0.1,0C13.4,4.9,13.4,4.9,13.3,4.9z M15.4,6.2C15.4,6.2,15.4,6.2,15.4,6.2C15.4,6.2,15.4,6.1,15.4,6.2
		C15.5,6.1,15.5,6.2,15.4,6.2C15.5,6.2,15.5,6.2,15.4,6.2z M15.8,6.2C15.7,6.2,15.7,6.2,15.8,6.2C15.7,6.1,15.7,6.1,15.8,6.2
		C15.8,6.1,15.8,6.1,15.8,6.2C15.8,6.2,15.8,6.2,15.8,6.2z M17.3,6.1C17.2,6.1,17.2,6.1,17.3,6.1C17.2,6,17.2,6,17.3,6.1
		C17.3,6,17.3,6,17.3,6.1C17.4,6.1,17.3,6.1,17.3,6.1z M20.2,5.1C20.1,5.1,20.1,5.1,20.2,5.1C20.1,5.1,20.1,5.1,20.2,5.1
		C20.2,5.1,20.2,5.1,20.2,5.1C20.3,5.1,20.2,5.1,20.2,5.1z M25,4.9C24.9,4.9,24.9,4.9,25,4.9C24.9,4.9,24.9,4.9,25,4.9
		C25,4.9,25,4.9,25,4.9C25,4.9,25,4.9,25,4.9z M24.5,4.7c0,0,0.1,0,0.1-0.1c0.1-0.1,0.1-0.1,0.1-0.1l0.1,0c0.1,0,0.2,0.1,0.3,0.2
		c0,0,0,0,0.1,0.1c0,0,0,0,0,0L24.5,4.7z"/>
</g>
</svg>
